HIERARCHY
ROOT hip
{
	OFFSET 0.000000 0.000000 0.000000 
	CHANNELS 6 Xposition Yposition Zposition Xrotation Zrotation Yrotation
	JOINT abdomen
	{
		OFFSET 0.000000 3.402643 0.000000 
		CHANNELS 3 Xrotation Zrotation Yrotation
		JOINT chest
		{
			OFFSET 0.000000 8.438565 -0.680529 
			CHANNELS 3 Xrotation Zrotation Yrotation
			JOINT neck
			{
				OFFSET 0.000000 10.207942 -0.272212 
				CHANNELS 3 Xrotation Zrotation Yrotation
				JOINT head
				{
					OFFSET 0.000000 3.130431 0.000000 
					CHANNELS 3 Xrotation Zrotation Yrotation
					End Site
					{
						OFFSET 0.000000 3.130435 0.000000 
					}
				}
			}
			JOINT lCollar
			{
				OFFSET 3.470700 6.669187 -0.816635 
				CHANNELS 3 Yrotation Zrotation Xrotation
				JOINT lShldr
				{
					OFFSET 3.198488 0.000000 0.000000 
					CHANNELS 3 Zrotation Yrotation Xrotation
					JOINT lForeArm
					{
						OFFSET 10.139888 0.000000 0.000000 
						CHANNELS 3 Yrotation Zrotation Xrotation
						JOINT lHand
						{
							OFFSET 8.370511 0.000000 0.000000 
							CHANNELS 3 Zrotation Yrotation Xrotation
							End Site
							{
								OFFSET 4.083176 0.000000 0.000000 
							}
						}
					}
				}
			}
			JOINT rCollar
			{
				OFFSET -3.470700 6.669187 -0.816635 
				CHANNELS 3 Yrotation Zrotation Xrotation
				JOINT rShldr
				{
					OFFSET -3.198488 0.000000 0.000000 
					CHANNELS 3 Zrotation Yrotation Xrotation
					JOINT rForeArm
					{
						OFFSET -10.139888 0.000000 0.000000 
						CHANNELS 3 Yrotation Zrotation Xrotation
						JOINT rHand
						{
							OFFSET -8.370511 0.000000 0.000000 
							CHANNELS 3 Zrotation Yrotation Xrotation
							End Site
							{
								OFFSET -4.083176 0.000000 0.000000 
							}
						}
					}
				}
			}
		}
	}
	JOINT lThigh
	{
		OFFSET 5.308129 -1.633274 1.361059 
		CHANNELS 3 Xrotation Zrotation Yrotation
		JOINT lShin
		{
			OFFSET -2.041588 -20.007561 0.000000 
			CHANNELS 3 Xrotation Zrotation Yrotation
			JOINT lFoot
			{
				OFFSET 0.000000 -19.190928 -1.224953 
				CHANNELS 3 Xrotation Yrotation Zrotation
				End Site
				{
					OFFSET 0.000000 -2.449906 4.627600 
				}
			}
		}
	}
	JOINT rThigh
	{
		OFFSET -5.308129 -1.633274 1.361059 
		CHANNELS 3 Xrotation Zrotation Yrotation
		JOINT rShin
		{
			OFFSET 2.041588 -20.007561 0.000000 
			CHANNELS 3 Xrotation Zrotation Yrotation
			JOINT rFoot
			{
				OFFSET 0.000000 -19.190928 -1.224953 
				CHANNELS 3 Xrotation Yrotation Zrotation
				End Site
				{
					OFFSET 0.000000 -2.449906 4.627600 
				}
			}
		}
	}
}
MOTION
Frames: 18
Frame Time: 0.033333
0.762872 48.709064 0.762872 3.965198 0.007136 -15.477839 19.197947 2.355675 -3.717052 3.087427 1.150696 -9.741934 -8.544922 -0.001505 -0.009645 5.496878 -1.589504 -28.480135 2.000000 -2.000000 0.000000 -75.643852 -3.658182 5.646317 -29.854109 -0.712893 8.414659 -8.583210 17.543072 -17.560680 -2.000000 2.000000 0.000000 55.803455 9.065266 -35.284367 71.154228 0.512524 8.787363 15.074636 -19.224321 -52.555923 -35.467468 11.845160 -2.844465 42.175209 -0.647159 -3.129113 -8.621426 14.389621 -9.619034 -21.317650 -14.394149 4.763283 37.443493 0.843505 2.835500 -24.454311 12.252531 14.702812 
0.727812 48.784199 0.727812 3.984705 -0.002515 -14.921875 19.088156 2.203874 -3.489241 3.097069 1.082421 -9.149736 -8.544922 -0.001505 -0.009645 5.692370 -1.511753 -27.512861 2.000000 -2.000000 0.000000 -75.483894 -3.569825 5.516040 -29.901918 -0.714712 8.417734 -8.583210 17.543072 -17.560680 -2.000000 2.000000 0.000000 56.934116 8.589556 -36.266258 74.136078 0.507523 8.816939 15.761884 -18.428932 -52.470104 -35.273186 11.784183 -2.763820 41.677979 -0.667490 -3.092538 -8.430511 13.827251 -9.576241 -20.813089 -14.351428 4.663696 37.032814 0.863194 2.830960 -24.343061 11.692881 14.567661 
0.697760 48.864334 0.697760 3.974912 -0.002413 -14.306641 18.985703 2.064504 -3.267318 3.116483 1.014139 -8.557387 -8.544922 -0.001505 -0.009645 5.887844 -1.433958 -26.447405 2.000000 -2.000000 0.000000 -75.330666 -3.480514 5.318833 -29.936483 -0.709366 8.421327 -8.583210 17.543072 -17.560680 -2.000000 2.000000 0.000000 58.091217 8.172707 -37.315983 77.185478 0.507624 8.857225 16.467846 -17.597536 -52.382061 -35.049046 11.725602 -2.704702 41.131180 -0.689329 -3.073335 -8.190187 13.210902 -9.498167 -20.246813 -14.322133 4.551521 36.545521 0.898240 2.778674 -24.229239 11.110663 14.421947 
0.672718 48.944466 0.672718 3.965119 -0.012046 -13.643257 18.882263 1.912787 -3.040956 3.126124 0.936116 -7.965782 -8.544922 -0.001505 -0.009645 6.083308 -1.346366 -25.293938 2.000000 -2.000000 0.000000 -75.157707 -3.387316 5.101480 -29.936483 -0.709366 8.421327 -8.583210 17.543072 -17.560680 -2.000000 2.000000 0.000000 59.277893 7.823061 -38.401558 80.303261 0.506717 8.877892 17.194771 -16.748739 -52.289837 -34.842426 11.639942 -2.626379 40.535473 -0.718638 -3.054165 -7.938747 12.574934 -9.426944 -19.663408 -14.303906 4.400259 35.997875 0.912190 2.774947 -24.093513 10.476162 14.250648 
0.632649 49.034599 0.632649 3.984623 -0.002185 -12.929688 18.766926 1.769929 -2.810828 3.135789 0.877598 -7.382896 -8.544922 -0.001505 -0.009645 6.278753 -1.258732 -24.032455 2.000000 -2.000000 0.000000 -74.972176 -3.264956 4.788171 -29.936483 -0.709366 8.421327 -8.583210 17.543072 -17.560680 -2.000000 2.000000 0.000000 60.485779 7.484642 -39.488720 83.451508 0.505397 8.916974 17.933968 -15.867873 -52.209770 -34.573994 11.550736 -2.538384 39.871620 -0.757707 -3.025008 -7.666530 11.872459 -9.328842 -18.977291 -14.253391 4.261005 35.412266 0.941534 2.734997 -23.931513 9.783878 14.073798 
0.602598 49.114735 0.602598 3.965064 -0.002063 -12.197267 18.659700 1.627168 -2.581325 3.145440 0.799579 -6.791340 -8.544922 -0.001505 -0.009645 6.474180 -1.171060 -22.711782 2.000000 -2.000000 0.000000 -74.787758 -3.135420 4.467327 -29.931795 -0.708246 8.412833 -8.583210 17.543072 -17.560680 -2.000000 2.000000 0.000000 61.695698 7.251742 -40.609348 86.625900 0.513648 8.955073 18.676847 -14.991874 -52.118603 -34.287785 11.452132 -2.447665 39.149082 -0.777247 -2.995729 -7.366176 11.130947 -9.227766 -18.314589 -14.224802 4.105324 34.777069 0.970835 2.711730 -23.769241 9.076169 13.890244 
0.577555 49.210003 0.577555 3.974803 0.007808 -11.425102 18.550846 1.488698 -2.361998 3.155106 0.731313 -6.228569 -8.544922 -0.001505 -0.009645 6.669596 -1.073592 -21.322468 2.000000 -2.000000 0.000000 -74.602142 -2.991271 4.076542 -29.888676 -0.707564 8.418372 -8.583210 17.543072 -17.560680 -2.000000 2.000000 0.000000 62.910511 7.040685 -41.721817 89.790482 0.517647 8.980766 19.416830 -14.100110 -52.013412 -34.002716 11.347040 -2.344199 38.398449 -0.832097 -2.928081 -7.041316 10.346675 -9.132010 -17.570023 -14.164453 3.963146 34.103474 1.000285 2.666888 -23.593523 8.325087 13.703281 
0.547504 49.305138 0.547504 3.974777 0.017684 -10.623644 18.449137 1.348099 -2.163590 3.164777 0.663048 -5.656054 -8.544922 -0.001505 -0.009645 6.845454 -0.985842 -19.873274 2.000000 -2.000000 0.000000 -74.418739 -2.836341 3.691516 -29.845711 -0.715415 8.419085 -8.583210 17.543072 -17.560680 -2.000000 2.000000 0.000000 64.109154 6.906540 -42.868946 92.980484 0.530858 9.012191 20.163109 -13.206038 -51.909229 -33.688465 11.239308 -2.251366 37.607666 -0.861289 -2.888273 -6.713977 9.567226 -9.030920 -16.813339 -14.118912 3.801147 33.400154 1.029706 2.629991 -23.392471 7.564508 13.499633 
0.512444 49.430401 0.512444 3.964986 0.017825 -9.783803 18.346172 1.213372 -1.953536 3.174453 0.594785 -5.112862 -8.544922 -0.001505 -0.009645 7.021299 -0.898067 -18.384480 2.000000 -2.000000 0.000000 -74.237114 -2.668070 3.302854 -29.797895 -0.713575 8.416128 -8.583210 17.543072 -17.560680 -2.000000 2.000000 0.000000 65.316589 6.792740 -43.985668 96.151299 0.533472 9.051448 20.899683 -12.316601 -51.787350 -33.357422 11.122110 -2.165692 36.786922 -0.904260 -2.860546 -6.332752 8.761256 -8.938830 -16.044315 -14.071812 3.629741 32.648388 1.068702 2.573542 -23.177994 6.791294 13.323597 
0.467367 49.520535 0.467367 3.974728 0.008224 -8.944633 18.241423 1.082634 -1.752770 3.184134 0.526523 -4.559926 -8.544922 -0.001505 -0.009645 7.187370 -0.800503 -16.856173 2.000000 -2.000000 0.000000 -74.056442 -2.482609 2.879814 -29.763168 -0.710318 8.417234 -8.583210 17.543072 -17.560680 -2.000000 2.000000 0.000000 66.499626 6.734621 -45.080769 99.290642 0.546871 9.078683 21.635979 -11.445219 -51.660336 -33.007652 10.992949 -2.057815 35.937561 -0.944171 -2.810839 -5.981698 7.933416 -8.817679 -15.247981 -13.999235 3.486918 31.876736 1.103403 2.524246 -22.964087 5.956605 13.134962 
0.442323 49.615673 0.442325 3.974707 0.018109 -8.094345 18.144758 0.951647 -1.551418 3.193827 0.468014 -4.045529 -8.544922 -0.001505 -0.009645 7.324126 -0.712674 -15.307207 2.000000 -2.000000 0.000000 -73.869347 -2.259963 2.474903 -29.720036 -0.709558 8.422641 -8.583210 17.543072 -17.560680 -2.000000 2.000000 0.000000 67.670654 6.735359 -46.154797 102.369621 0.559662 9.101271 22.359161 -10.576290 -51.505043 -32.671116 10.857664 -1.960740 35.088486 -0.982374 -2.750316 -5.621734 7.087191 -8.721474 -14.442900 -13.925432 3.283185 31.094816 1.127581 2.490790 -22.749397 5.142248 12.896012 
0.402256 49.730812 0.402256 3.974688 0.008509 -7.255180 18.046255 0.837016 -1.364829 3.193757 0.409509 -3.540992 -8.544922 -0.001505 -0.009645 7.460877 -0.615069 -13.738471 2.000000 -2.000000 0.000000 -73.683540 -2.029477 2.032479 -29.672373 -0.716228 8.414996 -8.583210 17.543072 -17.560680 -2.000000 2.000000 0.000000 68.807106 6.766861 -47.184753 105.395111 0.576468 9.135141 23.067030 -9.731318 -51.355873 -32.317303 10.740003 -1.848221 34.219139 -1.017323 -2.706774 -5.214509 6.267197 -8.599280 -13.655657 -13.851727 3.142906 30.312298 1.166771 2.460713 -22.522932 4.341776 12.724895 
0.372204 49.826069 0.372204 3.974670 0.008654 -6.395806 17.946623 0.714022 -1.182130 3.203458 0.351002 -3.046157 -8.544922 -0.001505 -0.009645 7.578084 -0.536977 -12.178535 2.000000 -2.000000 0.000000 -73.510727 -1.776454 1.613863 -29.637632 -0.712932 8.416094 -8.583210 17.543072 -17.560680 -2.000000 2.000000 0.000000 69.903862 6.847299 -48.186932 108.326248 0.589021 9.152110 23.748390 -8.903912 -51.181553 -31.954559 10.593039 -1.758688 33.339802 -1.056159 -2.663360 -4.813987 5.428529 -8.500229 -12.858857 -13.777047 2.961537 29.530682 1.196305 2.408592 -22.311960 3.533197 12.509246 
0.332136 49.926208 0.332136 3.974656 -0.000947 -5.566406 17.855112 0.612927 -1.000867 3.213166 0.292496 -2.590405 -8.544922 -0.001505 -0.009645 7.675756 -0.458875 -10.618122 2.000000 -2.000000 0.000000 -73.340134 -1.504854 1.217641 -29.594496 -0.712118 8.421494 -8.583210 17.543072 -17.560680 -2.000000 2.000000 0.000000 70.946159 6.980788 -49.154137 111.185905 0.607568 9.182823 24.399401 -8.107277 -50.992180 -31.620340 10.448686 -1.650334 32.489857 -1.099655 -2.612650 -4.428907 4.597811 -8.391624 -12.084133 -13.695427 2.832708 28.749123 1.230339 2.347516 -22.099438 2.725657 12.320351 
0.307093 50.006344 0.307093 3.974643 0.008934 -4.745415 17.772146 0.509993 -0.841104 3.213112 0.233993 -2.154246 -8.544922 -0.001505 -0.009645 7.744125 -0.380766 -9.076778 2.000000 -2.000000 0.000000 -73.191826 -1.206146 0.836397 -29.568316 -0.714873 8.413492 -8.583210 17.543072 -17.560680 -2.000000 2.000000 0.000000 71.960625 7.118959 -50.045490 113.907166 0.618149 9.208098 25.031773 -7.348577 -50.783665 -31.292751 10.320043 -1.558379 31.658644 -1.129074 -2.587841 -4.074769 3.799999 -8.274464 -11.325646 -13.610625 2.635284 27.995657 1.254975 2.324280 -21.877039 1.941344 12.115404 
0.267025 50.086479 0.267025 3.974633 -0.000670 -3.935547 17.688198 0.407625 -0.681273 3.222831 0.185239 -1.746801 -8.544922 -0.001505 -0.009645 7.792959 -0.312417 -7.554551 2.000000 -2.000000 0.000000 -73.035683 -0.887831 0.500199 -29.559916 -0.717370 8.417922 -8.583210 17.543072 -17.560680 -2.000000 2.000000 0.000000 72.922295 7.243224 -50.833305 116.537605 0.634497 9.231446 25.626333 -6.647031 -50.569771 -30.952614 10.174076 -1.491204 30.858036 -1.158333 -2.525369 -3.693367 3.002126 -8.195121 -10.600929 -13.510416 2.490385 27.282537 1.288828 2.256310 -21.680862 1.158310 11.950068 
0.236973 50.161610 0.236973 3.974624 0.018947 -3.152940 17.612783 0.312465 -0.537665 3.222789 0.136488 -1.544476 -8.544922 -0.001505 -0.009645 7.822260 -0.244064 -6.080953 2.000000 -2.000000 0.000000 -72.900154 -0.552382 0.207774 -29.559916 -0.717370 8.417922 -8.583210 17.543072 -17.560680 -2.000000 2.000000 0.000000 73.831879 7.415719 -51.575962 119.019272 0.656856 9.247551 26.188139 -5.973857 -50.328922 -30.670576 10.037901 -1.418350 30.096224 -1.202333 -2.458538 -3.348950 2.232691 -8.067900 -9.909491 -13.414928 2.337635 26.606953 1.313725 2.236652 -21.513109 0.429646 11.743802 
0.196906 50.226746 0.196906 3.974618 0.009333 -2.401665 17.536646 0.234036 -0.409333 3.232518 0.097486 -1.361114 -8.544922 -0.001505 -0.009645 7.812498 -0.175710 -4.655992 2.000000 -2.000000 0.000000 -72.776123 -0.177559 -0.051249 -29.568316 -0.714873 8.413492 -8.583210 17.543072 -17.560680 -2.000000 2.000000 0.000000 74.685867 7.565153 -52.215622 121.351601 0.673184 9.270789 26.713079 -5.357706 -50.083248 -30.405674 9.910542 -1.339014 29.402082 -1.231575 -2.420301 -2.994088 1.496451 -7.964437 -9.273389 -13.325200 2.208986 25.981050 1.333345 2.198770 -21.350689 -0.283760 11.572411 
